# xmcd
#
# Track frame offsets: 
#        150
#        3356
#        28529
#        40557
#        58267
#        77264
#        91772
#        105505
#        130550
#        152434
#        175710
#        194922
#        214168
#
# Disc length: 3081 seconds
#
# Revision: 2
# Processed by: cddbd v1.5.2PL0 Copyright (c) Steve Scherf et al.
# Submitted via: ExactAudioCopy v0.99pb5
#
DISCID=930c070d
DTITLE=Champions of Nature - CON Artists Mixed by DJ IQ
DYEAR=2004
DGENRE=Hip-Hop
TTITLE0=DJ IQ Intro
TTITLE1=The Fuck Off Song
TTITLE2=An Undercurrent
TTITLE3=360
TTITLE4=Carpe Diem
TTITLE5=Finalisation
TTITLE6=Cold Sun (In The City)
TTITLE7=Breakfast of Champions
TTITLE8=Jazzy Styles
TTITLE9=Salsa Smurf
TTITLE10=Nar Not Me
TTITLE11=C'Mon (CON)
TTITLE12=There's No Reason
EXTD=Flat4 done this
EXTT0=
EXTT1=
EXTT2=
EXTT3=
EXTT4=
EXTT5=
EXTT6=
EXTT7=
EXTT8=
EXTT9=
EXTT10=
EXTT11=
EXTT12=
PLAYORDER=
